PathFileType	4	(X/Y/Z)	pose_F01_0-77.trc
DataRate	CameraRate	NumFrames	NumMarkers	Units	OrigDataRate	OrigDataStartFrame	OrigNumFrames
30	30	8	21	m	30	0	77
Frame#	Time	CHip			RHip			RKnee			RAnkle			RBigToe			RSmallToe			RHeel			LHip			LKnee			LAnkle			LBigToe			LSmallToe			LHeel			Neck			Nose			RShoulder			RElbow			RWrist			LShoulder			LElbow			LWrist			
		X1	Y1	Z1	X2	Y2	Z2	X3	Y3	Z3	X4	Y4	Z4	X5	Y5	Z5	X6	Y6	Z6	X7	Y7	Z7	X8	Y8	Z8	X9	Y9	Z9	X10	Y10	Z10	X11	Y11	Z11	X12	Y12	Z12	X13	Y13	Z13	X14	Y14	Z14	X15	Y15	Z15	X16	Y16	Z16	X17	Y17	Z17	X18	Y18	Z18	X19	Y19	Z19	X20	Y20	Z20	X21	Y21	Z21	
0	0.0	-0.2513500578796701	1.887786942652493	-0.5234800200359127	-0.25671002183380487	1.884429631030013	-0.46054079435082707	-0.26956072402303477	1.7326925330255474	-0.42684090565746396	-0.2908280508015963	1.5858684450234632	-0.3636697074023297	-0.2590978297447673	1.5557942956016775	-0.3770252551968038	-0.26886249483503444	1.5630029406965078	-0.3501719820018319	-0.2939404690732943	1.5809237858260468	-0.3739743675685066	-0.23536832854630524	1.8904471928899695	-0.5882984890639428	-0.25338663157440733	1.7395413252763106	-0.5608991631303631	-0.2784503787809408	1.5957181452943658	-0.5253670052075262	-0.2489750609086831	1.5661775833591545	-0.5931379996219497	-0.2526987560190551	1.5729703802950536	-0.6033027630500841	-0.27198747004910384	1.582102357953932	-0.508148131351594	-0.26137336264071326	2.054322929754009	-0.5261634593050201	-0.23688657137817334	2.1295473184270333	-0.5537217334607698	-0.2655839703299118	2.0552191087536094	-0.440978212359881	-0.22624887527317883	2.042528835676735	-0.43036166679092414	-0.15132753610319277	2.068908155303818	-0.5059783518276707	-0.24838511683433423	2.0525550695738004	-0.6154460357873459	-0.22487503669004844	1.9906949721122438	-0.6599277104658743	-0.186098226867426	1.9803089278278327	-0.7117315041127381
1	0.03333333333333333	-0.2515352937901098	1.8869567038236659	-0.5231012664489446	-0.2566909125977648	1.8843483662842404	-0.46041477772734496	-0.25670852515465264	1.7285484878079587	-0.43597613800043333	-0.2859761193512042	1.587354449219197	-0.3598632251944259	-0.25805085818142337	1.5539256789745859	-0.3829279497006478	-0.26412243061490037	1.5566627265177546	-0.3432581495229306	-0.29168228385899775	1.5829643113694989	-0.3627612959299009	-0.23956165650337954	1.8902900460346568	-0.5836473719874926	-0.2548921204836504	1.7356076843468442	-0.5633918570134507	-0.27647496960356555	1.5958776335278062	-0.5274143258748597	-0.2457879413636106	1.5658246899215398	-0.5921625257898282	-0.25073107525688365	1.5739238447171713	-0.6051068631329443	-0.27198747004910384	1.582102357953932	-0.508148131351594	-0.26042050162559044	2.05284906268822	-0.5225182405895573	-0.2359454727959276	2.1294911148086424	-0.550742172804944	-0.26556154239801094	2.053823159668752	-0.4402516665015746	-0.22705267943964708	2.044686501982129	-0.42554581292899285	-0.15376138582930887	2.0796230454322373	-0.5071538675632571	-0.24758360919159725	2.0499706921014496	-0.611867399147595	-0.2255793332232976	1.9909746014125909	-0.6625511234979031	-0.18167720638319398	1.9830001167010947	-0.7167137232461624
2	0.06666666666666667	-0.25172052970054953	1.8861264649948388	-0.5227225128619766	-0.2566718033617247	1.8842671015384678	-0.46028876110386285	-0.2438563262862705	1.72440444259037	-0.4451113703434027	-0.2811241879008121	1.588840453414931	-0.35605674298652207	-0.25700388661807944	1.5520570623474943	-0.3888306442044918	-0.2593823663947663	1.5503225123390014	-0.3363443170440293	-0.2894240986447012	1.585004836912951	-0.35154822429129523	-0.24375498446045385	1.890132899179344	-0.5789962549110425	-0.25639760939289347	1.7316740434173779	-0.5658845508965383	-0.2744995604261903	1.5960371217612466	-0.5294616465421932	-0.2426008218185381	1.565471796483925	-0.5911870519577067	-0.24876339449471221	1.574877309139289	-0.6069109632158044	-0.27198747004910384	1.582102357953932	-0.508148131351594	-0.2594676406104676	2.0513751956224313	-0.5188730218740946	-0.23500437421368184	2.1294349111902515	-0.5477626121491181	-0.26553911446611006	2.0524272105838945	-0.4395251206432682	-0.22785648360611532	2.0468441682875236	-0.42072995906706157	-0.15619523555542497	2.0903379355606564	-0.5083293832988435	-0.24678210154886027	2.0473863146290987	-0.6082887625078441	-0.22628362975654676	1.991254230712938	-0.665174536529932	-0.17725618589896197	1.9856913055743566	-0.7216959423795868
3	0.1	-0.2525450816551097	1.8834867811954983	-0.5168782808105761	-0.2556212924252593	1.8803307030788903	-0.45642706740435723	-0.2380167588247421	1.724562885364134	-0.4425815680597324	-0.27628476039796507	1.5822086359399357	-0.346037434752905	-0.2488105982825776	1.5467178149325371	-0.36398787466231974	-0.2546423021746323	1.5439822981602482	-0.32943048456512797	-0.28456956764281344	1.5829869580167926	-0.34252097547721605	-0.2468342851354594	1.8851293278195596	-0.5706022553314865	-0.24781462381804245	1.7268267774315083	-0.5744108484958038	-0.27333195090988277	1.5959378824324133	-0.5262507374493607	-0.24086924084717937	1.5677933895290785	-0.5930308919657019	-0.24783536040612256	1.575278451828306	-0.6038256691115822	-0.27198747004910384	1.582102357953932	-0.508148131351594	-0.2565738120712863	2.0486117952111176	-0.5174521544520664	-0.23505970632717357	2.1269685379101033	-0.5472590560878657	-0.26261783716080667	2.0482892117520763	-0.43747865416329207	-0.22768805944953965	2.0488979280738873	-0.41270713084984123	-0.1572725135183193	2.0978507922995524	-0.5061607676503147	-0.24590549377704576	2.0446570411398852	-0.6047731605877826	-0.22284073139542107	1.9818741406276745	-0.6611979510260911	-0.17219267151494044	1.9975049891408228	-0.7272167423489486
4	0.13333333333333333	-0.25126668301914595	1.872115453895239	-0.5085521737450478	-0.2568273954118682	1.8688589224835068	-0.4489598714407268	-0.23420153767246954	1.7120505330276041	-0.440718312286631	-0.2628225341372921	1.5713172315387143	-0.3361115560759113	-0.2443605801520867	1.537016212383087	-0.362429167139998	-0.24990223795449823	1.537642083981495	-0.32251665208622665	-0.27885668710332123	1.5658202668066898	-0.3224531328344551	-0.24660683051082322	1.8736585195750042	-0.5657023567328675	-0.24088681464866313	1.7258290924862274	-0.5815439261082808	-0.2720088491396363	1.5934875412521599	-0.5231649232346788	-0.24490758273341406	1.5661857572413955	-0.5889998339886896	-0.2499647082650457	1.5720977899889275	-0.601330747758065	-0.27198747004910384	1.582102357953932	-0.508148131351594	-0.25795686062307016	2.0376219301170386	-0.5111127246484375	-0.23525634644145665	2.1198192651857615	-0.5369275731748039	-0.2598165145740736	2.041711447709342	-0.43492388584426583	-0.21107500046534874	2.053986122746723	-0.4274567844845092	-0.14990339798079955	2.1071325261539244	-0.5184357859458002	-0.24606452603489842	2.0389586836159896	-0.5951163835849486	-0.21980763563330652	1.9721153215577996	-0.6585257546790936	-0.16896976633348096	2.003903540366548	-0.7274412349734113
5	0.16666666666666666	-0.24810200109211047	1.8662059836376732	-0.49787706131631687	-0.25365512238794385	1.8648097184371792	-0.4383928774784006	-0.23078473944272748	1.7030545730781836	-0.4343564558287539	-0.2706352354260184	1.5697282663090273	-0.3269903979378067	-0.24147409102882356	1.5348727970104186	-0.3609954458894311	-0.24841710291129473	1.5372135334847274	-0.3239595089112148	-0.28029473053311293	1.5665442834680077	-0.316431775229282	-0.24365519765967317	1.869775230734789	-0.5553982803952963	-0.2357103957610744	1.7201691064158595	-0.5819586606282681	-0.2720121446188658	1.5936185545181427	-0.5230714758107213	-0.24455703766336268	1.5647498467946221	-0.589023823249488	-0.2494857755478748	1.5696364519553614	-0.6012975170152566	-0.27198747004910384	1.582102357953932	-0.508148131351594	-0.2560673315420492	2.0333357859584607	-0.5037318042044482	-0.22956254403880907	2.1139016354522515	-0.5352097765427838	-0.25975413992069024	2.0366660530312384	-0.4261128659051511	-0.21403002364200363	2.059344103605504	-0.4309409717565921	-0.1508570235873966	2.1123589051022167	-0.5243306617172011	-0.24279155117623172	2.0300423876139146	-0.5821097682388698	-0.22744073516191513	1.9937331743017888	-0.688981891567234	-0.1658229714373272	2.0109647505423873	-0.7176078078230157
6	0.2	-0.24624277413861478	1.8645304443732234	-0.49123911536017995	-0.2506583497341882	1.8626773254388107	-0.42832323330564925	-0.22998124170385867	1.7046292833923733	-0.4309115789838771	-0.2710081427731404	1.5723338474593378	-0.3265828392383287	-0.23975302096560616	1.5361819365985092	-0.36281498860551586	-0.24743208060190003	1.5382202769166167	-0.32036846913644923	-0.28164335701417614	1.5683424732800295	-0.3193283753257446	-0.24165699967699286	1.8690905291207993	-0.5488199327094218	-0.2339169275463639	1.7185063227991857	-0.575005908046676	-0.272056732273049	1.5939250088413395	-0.523004490886345	-0.24468980421184955	1.5653223555776945	-0.5889568356330893	-0.2497590978372647	1.570985115278308	-0.6012332032570443	-0.27198747004910384	1.582102357953932	-0.508148131351594	-0.2569110155481226	2.034244125684693	-0.49839995364825884	-0.2276155953051731	2.112853511124537	-0.5373117413121031	-0.25655998624800813	2.037479170432904	-0.41639903765021946	-0.19739313376496243	2.0619634770694293	-0.44507180770182947	-0.14772427211837308	2.112050505259591	-0.5311238047533485	-0.244638369927437	2.030116991493046	-0.5875266501389999	-0.2190325729507068	1.966466459154107	-0.6548849174438695	-0.1652818300250258	2.0039104856151084	-0.7036004788267014
7	0.23333333333333334	-0.24845115516908584	1.8714893848200274	-0.49016847852772466	-0.25105552772588763	1.8696463336981284	-0.42948909407982916	-0.23288337981348636	1.706989870193455	-0.42343200608783593	-0.2693998151115925	1.5741940766494273	-0.3284749170059041	-0.2395547141285801	1.5355116506280706	-0.36275887912996846	-0.24535531329908863	1.5372790873371653	-0.32269424844566785	-0.27986778056753053	1.571159181224147	-0.3216778975438259	-0.24301923520907806	1.8732190119004855	-0.5441882209628095	-0.2342644377749042	1.722686523482808	-0.5665139287665023	-0.27086947346322315	1.5959478576295922	-0.5200653222189638	-0.24383731231546948	1.5660742666519325	-0.5857340229637423	-0.24964160699983037	1.5733894185003874	-0.6017832450158931	-0.27198747004910384	1.582102357953932	-0.508148131351594	-0.2559272576812458	2.036782974194662	-0.49630010197109536	-0.2276309507767206	2.1138499280766236	-0.528988903751898	-0.25661545650723117	2.040451610204302	-0.4175365409423853	-0.19542526237835012	2.061321116746944	-0.44559253727913944	-0.14072641696142826	2.1122083635861744	-0.5339134605128836	-0.24272704104160006	2.035239291072282	-0.5827985582407591	-0.22100542999433756	1.970751800366369	-0.6533753143970582	-0.16442629423416022	2.0052520041643804	-0.7009408553557513
